<svg width="192" height="192" viewBox="0 0 192 192" fill="none" xmlns="http://www.w3.org/2000/svg">
<circle cx="96" cy="96" r="64" fill="#F7F7F7"/>
<path fill-rule="evenodd" clip-rule="evenodd" d="M146.681 152.338C145.18 150.837 142.774 150.78 141.12 152.112C128.776 162.051 113.083 168 96 168C78.9175 168 63.2244 162.051 50.8796 152.112C49.2257 150.78 46.82 150.837 45.3185 152.338L39.6262 158.031C38.0139 159.643 38.0682 162.282 39.8224 163.738C55.0631 176.392 74.6431 184 96 184C117.357 184 136.937 176.392 152.178 163.738C153.932 162.282 153.986 159.643 152.374 158.031L146.681 152.338ZM152.338 45.3185C150.837 46.82 150.78 49.2257 152.112 50.8796C162.051 63.2244 168 78.9175 168 96C168 113.083 162.051 128.776 152.112 141.12C150.78 142.774 150.837 145.18 152.338 146.681L158.031 152.374C159.643 153.986 162.282 153.932 163.738 152.178C176.392 136.937 184 117.357 184 96C184 74.6431 176.392 55.0631 163.738 39.8224C162.282 38.0682 159.643 38.0139 158.031 39.6262L152.338 45.3185ZM152.374 33.9693C153.986 32.3571 153.932 29.7181 152.178 28.2616C136.937 15.608 117.357 8 96 8C74.6431 8 55.0631 15.608 39.8224 28.2616C38.0682 29.7181 38.0139 32.3571 39.6262 33.9693L45.3186 39.6617C46.82 41.1631 49.2257 41.22 50.8796 39.8884C63.2244 29.9491 78.9175 24 96 24C113.083 24 128.776 29.949 141.12 39.8884C142.774 41.22 145.18 41.1631 146.681 39.6617L152.374 33.9693ZM39.8884 50.8796C41.22 49.2257 41.1631 46.82 39.6617 45.3185L33.9693 39.6262C32.3571 38.0139 29.7181 38.0682 28.2616 39.8224C15.608 55.0631 8 74.6431 8 96C8 117.357 15.608 136.937 28.2616 152.178C29.7181 153.932 32.3571 153.986 33.9693 152.374L39.6617 146.681C41.1631 145.18 41.22 142.774 39.8884 141.12C29.949 128.776 24 113.083 24 96C24 78.9175 29.9491 63.2244 39.8884 50.8796Z" fill="#0082FC"/>
<mask id="mask0_3_76" style="mask-type:alpha" maskUnits="userSpaceOnUse" x="33" y="32" width="126" height="128">
<rect x="33.5914" y="32" width="124.817" height="128" fill="#D9D9D9"/>
</mask>
<g mask="url(#mask0_3_76)">
<path d="M90.7993 149.333V108.8L66.876 133.333L59.595 125.867L88.719 96L59.595 66.1333L66.876 58.6667L90.7993 83.2V42.6667H96L125.644 73.0667L103.281 96L125.644 118.933L96 149.333H90.7993ZM101.201 83.2L111.082 73.0667L101.201 63.2V83.2ZM101.201 128.8L111.082 118.933L101.201 108.8V128.8Z" fill="#2F2F2F"/>
</g>
</svg>
